<?xml version="1.0" encoding="UTF-8"?>
<svg version="1.1" xmlns="http://www.w3.org/2000/svg" width="1308" height="852">
<path d="M0 0 C431.64 0 863.28 0 1308 0 C1308 281.16 1308 562.32 1308 852 C876.36 852 444.72 852 0 852 C0 570.84 0 289.68 0 0 Z " fill="#533D96" transform="translate(0,0)"/>
<path d="M0 0 C1.1508609 -0.00365067 2.3017218 -0.00730133 3.48745728 -0.01106262 C7.27206424 -0.01913315 11.05623822 -0.00558311 14.84082031 0.0090332 C17.4872497 0.00955237 20.13366304 0.00908442 22.78009033 0.00752258 C28.32121883 0.00664198 33.86222447 0.01766674 39.40332031 0.03613281 C45.77724603 0.05725499 52.1509914 0.06081778 58.52494502 0.05457085 C64.69136951 0.04884028 70.85773155 0.05456871 77.02414703 0.0657444 C79.63143919 0.06957351 82.23873671 0.07075419 84.84603119 0.06915855 C88.50422685 0.06878434 92.16215704 0.08150886 95.8203125 0.09765625 C96.88152313 0.09517883 97.94273376 0.09270142 99.03610229 0.09014893 C114.62183861 0.19898592 126.6962167 2.5776227 138.10644531 13.74731445 C142.10640079 17.95239586 145.32186109 21.84161656 147.16894531 27.37231445 C147.50836151 28.34866348 147.84777771 29.32501251 148.19747925 30.33094788 C149.57407012 35.21150303 149.4327749 40.04436749 149.39599609 45.08105469 C149.39628815 46.13546249 149.3965802 47.1898703 149.3968811 48.27622986 C149.39549317 51.7445411 149.37995707 55.21263471 149.36425781 58.6809082 C149.36052578 61.09228905 149.35767971 63.50367141 149.35568237 65.91505432 C149.34806093 72.2493003 149.32842514 78.58345397 149.30627441 84.91766357 C149.28217877 92.52437177 149.27302792 100.1311109 149.2613678 107.73784637 C149.24199998 119.28273318 149.20366681 130.82741762 149.16894531 142.37231445 C129.03894531 142.37231445 108.90894531 142.37231445 88.16894531 142.37231445 C88.16894531 118.94231445 88.16894531 95.51231445 88.16894531 71.37231445 C44.11394531 71.86731445 44.11394531 71.86731445 -0.83105469 72.37231445 C4.44894531 76.33231445 9.72894531 80.29231445 15.16894531 84.37231445 C16.63831645 89.94251605 16.99958503 92.55278844 16.56347656 97.9934082 C16.53694504 99.25516373 16.51041351 100.51691925 16.483078 101.81690979 C16.40753877 105.14819374 16.26967395 108.46238527 16.08996582 111.78869629 C13.78127855 131.77005455 13.78127855 131.77005455 19.91325378 149.78565979 C22.1642215 152.19229974 24.62627557 154.28107436 27.16894531 156.37231445 C28.584885 158.04687188 29.96836977 159.75035215 31.29394531 161.49731445 C35.52871808 166.83606057 39.84621262 172.1046815 44.16894531 177.37231445 C49.91818045 184.38616877 55.64560729 191.41739038 61.36230469 198.45776367 C65.95075138 204.10725505 70.55549727 209.74321926 75.16894531 215.37231445 C80.91765667 222.38660032 86.64560532 229.41738796 92.36230469 236.45776367 C96.95075138 242.10725505 101.55549727 247.74321926 106.16894531 253.37231445 C111.91765667 260.38660032 117.64560532 267.41738796 123.36230469 274.45776367 C128.7602892 281.10399255 134.17914436 287.73297208 139.61425781 294.34887695 C140.41605469 295.32598633 141.21785156 296.3030957 142.04394531 297.30981445 C142.76324219 298.18508789 143.48253906 299.06036133 144.22363281 299.9621582 C144.86558594 300.75750977 145.50753906 301.55286133 146.16894531 302.37231445 C146.95984275 303.27001037 146.95984275 303.27001037 147.76671791 304.18584156 C149.51268836 306.90830801 149.54606633 308.5470249 149.54989624 311.76603699 C149.55835571 312.86078339 149.56681519 313.95552979 149.57553101 315.08345032 C149.56642197 316.87808968 149.56642197 316.87808968 149.55712891 318.70898438 C149.56501434 320.6047522 149.56501434 320.6047522 149.57305908 322.53881836 C149.58673503 326.00403909 149.58143121 329.4689918 149.57192183 332.93421721 C149.56431837 336.56685459 149.57137351 340.19946925 149.57608032 343.83210754 C149.58153937 349.93775541 149.57434605 356.04329445 149.56005859 362.14892578 C149.54376826 369.19144493 149.54899349 376.23370302 149.56553781 383.27621573 C149.57919222 389.33246049 149.581052 395.38862702 149.5732218 401.44488221 C149.56856222 405.05741127 149.56787212 408.66981807 149.57783127 412.2823391 C149.58817889 416.31793796 149.5737993 420.35309416 149.55712891 424.38867188 C149.5632016 425.57497696 149.56927429 426.76128204 149.57553101 427.98353577 C149.4779754 440.77086876 145.27757572 451.01105525 136.66894531 460.55981445 C125.92063899 470.74896033 113.59741369 472.51434027 99.47314453 472.54931641 C98.31282211 472.5558876 97.15249969 472.5624588 95.95701599 472.56922913 C92.12922085 472.58888761 88.30146482 472.60060825 84.47363281 472.6105957 C82.50519094 472.61670899 82.50519094 472.61670899 80.49698257 472.62294579 C74.26541686 472.64196807 68.03386275 472.65620449 61.80227363 472.66455775 C54.64430985 472.67431521 47.48665652 472.70060785 40.32880199 472.74105865 C34.77266254 472.7713644 29.21661137 472.78604027 23.66039097 472.78933877 C20.35283007 472.79167303 17.04567475 472.80244213 13.73818588 472.82579994 C10.03891419 472.85030076 6.34044225 472.84920586 2.64111328 472.84228516 C1.56740982 472.85509521 0.49370636 472.86790527 -0.61253357 472.88110352 C-14.57076284 472.78662404 -26.01158495 468.22651878 -35.83105469 458.37231445 C-38.72383447 454.90199195 -40.96420909 451.48435303 -42.83105469 447.37231445 C-43.32819221 446.34849167 -43.32819221 446.34849167 -43.83537292 445.3039856 C-48.39748614 434.21430335 -47.32947539 422.34778397 -47.22167969 410.57543945 C-47.21420885 408.17120842 -47.2085199 405.76697126 -47.20452881 403.36273193 C-47.18933899 397.06952772 -47.1501147 390.77669943 -47.10571289 384.48364258 C-47.05737628 376.91441616 -47.03919452 369.34506327 -47.01589966 361.77572632 C-46.97725973 350.30766183 -46.90055836 338.84042031 -46.83105469 327.37231445 C-26.37105469 327.37231445 -5.91105469 327.37231445 15.16894531 327.37231445 C15.16894531 351.79231445 15.16894531 376.21231445 15.16894531 401.37231445 C39.25894531 401.37231445 63.34894531 401.37231445 88.16894531 401.37231445 C88.23082031 389.76043945 88.29269531 378.14856445 88.35644531 366.18481445 C88.40438232 362.54426025 88.45231934 358.90370605 88.50170898 355.15283203 C88.49184966 351.83457165 88.49184966 351.83457165 88.46748352 348.5164032 C88.46366619 347.06022141 88.48106073 345.60387417 88.51643372 344.14811707 C88.74268732 334.01393487 87.36940698 327.97282564 80.28806591 320.46805286 C78.92628298 319.09157778 77.54818054 317.73130179 76.16894531 316.37231445 C75.11093304 315.10247613 74.07307805 313.81492949 73.07519531 312.49731445 C68.2231208 306.19591899 63.25211546 300.03749845 58.08740234 293.98999023 C54.67811405 289.99310468 51.37491073 285.92513752 48.11035156 281.80981445 C45.34784911 278.34140091 42.5314925 274.91801102 39.71972656 271.48950195 C36.69118968 267.79320843 33.68066024 264.08231619 30.66894531 260.37231445 C27.01012434 255.8658395 23.3476951 251.36255316 19.66894531 246.87231445 C15.41940361 241.68537384 11.19238759 236.4803156 6.96582031 231.2746582 C3.87415198 227.46786098 0.77689669 223.66584334 -2.33105469 219.87231445 C-8.75870695 212.0254178 -15.14463959 204.14454083 -21.53808594 196.26977539 C-32.37670437 182.05556225 -32.37670437 182.05556225 -44.41661072 168.97877502 C-48.211863 164.37768273 -47.52023452 158.92931137 -47.4621582 153.23925781 C-47.46931351 152.02056 -47.47646881 150.80186218 -47.48384094 149.54623413 C-47.49783018 146.21261674 -47.48943791 142.88055636 -47.46975064 139.54706645 C-47.45330401 136.04443556 -47.46218656 132.54185316 -47.4672699 129.03919983 C-47.47178838 123.15051555 -47.45594698 117.2621491 -47.42797852 111.37353516 C-47.39603161 104.59566971 -47.39590243 97.81838063 -47.41319329 91.04047483 C-47.4291513 84.4933116 -47.42225899 77.94635669 -47.40525627 71.39920235 C-47.39843899 68.62717604 -47.39936306 65.85531942 -47.40680122 63.08329582 C-47.41600352 59.19235804 -47.39173425 55.30199324 -47.36450195 51.41113281 C-47.37102783 50.27975388 -47.37755371 49.14837494 -47.38427734 47.98271179 C-47.25288008 36.85299456 -44.59582197 26.34557929 -37.83105469 17.37231445 C-37.41339844 16.78063477 -36.99574219 16.18895508 -36.56542969 15.5793457 C-27.46939944 3.73882358 -14.25589907 -0.10190553 0 0 Z " fill="#FEFEFE" transform="translate(603.8310546875,184.627685546875)"/>
<path d="M0 0 C64.68 0 129.36 0 196 0 C196 6.6 196 13.2 196 20 C131.32 20 66.64 20 0 20 C0 13.4 0 6.8 0 0 Z " fill="#FCFBFD" transform="translate(557,708)"/>
</svg>
